<svg id="Capa_1" data-name="Capa 1" xmlns="http://www.w3.org/2000/svg" viewBox="0 0 100 100"><defs><style>.cls-1,.cls-14{font-size:2px;}.cls-1,.cls-14,.cls-9{fill:#1d1d1b;}.cls-1,.cls-9{font-family:Lato-Bold, Lato;font-weight:700;}.cls-2{letter-spacing:-0.01em;}.cls-3{letter-spacing:-0.01em;}.cls-4{letter-spacing:0em;}.cls-5{letter-spacing:-0.1em;}.cls-6{letter-spacing:0em;}.cls-7{letter-spacing:-0.01em;}.cls-8{fill:none;stroke:#1d1d1b;}.cls-10,.cls-11,.cls-12,.cls-8{stroke-miterlimit:10;stroke-width:0.1px;}.cls-9{font-size:1.7px;}.cls-10{fill:#e94e1b;}.cls-10,.cls-11,.cls-12{stroke:#000;}.cls-11{fill:#f39200;}.cls-12{fill:#fdd390;}.cls-13{letter-spacing:0.31em;}.cls-14{font-family:Lato-Light, Lato;font-weight:300;}.cls-15{letter-spacing:-0.03em;}.cls-16{letter-spacing:-0.01em;}.cls-17{letter-spacing:-0.02em;}.cls-18{letter-spacing:-0.03em;}.cls-19{letter-spacing:-0.05em;}</style></defs><text class="cls-1" transform="translate(79.45 8.37)">Las dos tempe<tspan class="cls-2" x="12.6" y="0">r</tspan><tspan x="13.4" y="0">atu</tspan><tspan class="cls-2" x="16.35" y="0">r</tspan><tspan x="17.14" y="0">as</tspan><tspan x="0" y="2.4">más altas en los</tspan><tspan x="0" y="4.8">t</tspan><tspan class="cls-3" x="0.77" y="4.8">r</tspan><tspan class="cls-4" x="1.56" y="4.8">atamientos</tspan><tspan x="0" y="7.2">de salinidad.</tspan></text><text class="cls-1" transform="translate(43.74 90.41)"><tspan class="cls-5">T</tspan><tspan class="cls-6" x="0.99" y="0">empe</tspan><tspan class="cls-7" x="5.94" y="0">r</tspan><tspan class="cls-4" x="6.73" y="0">atu</tspan><tspan class="cls-7" x="9.69" y="0">r</tspan><tspan x="10.48" y="0">a</tspan></text><line class="cls-8" x1="2.82" y1="82.23" x2="2.82" y2="80.81"/><line class="cls-8" x1="97.18" y1="25.58" x2="85.05" y2="25.58"/><line class="cls-8" x1="21.69" y1="82.23" x2="21.69" y2="80.81"/><line class="cls-8" x1="40.56" y1="82.23" x2="40.56" y2="80.81"/><line class="cls-8" x1="59.44" y1="82.23" x2="59.44" y2="80.81"/><line class="cls-8" x1="78.31" y1="82.23" x2="78.31" y2="80.81"/><line class="cls-8" x1="97.18" y1="82.23" x2="97.18" y2="80.81"/><line class="cls-8" x1="97.18" y1="82.23" x2="97.18" y2="25.58"/><line class="cls-8" x1="97.18" y1="82.23" x2="85.05" y2="82.23"/><line class="cls-8" x1="97.18" y1="70.9" x2="48.33" y2="70.9"/><line class="cls-8" x1="97.18" y1="59.57" x2="65.04" y2="59.57"/><line class="cls-8" x1="97.18" y1="48.24" x2="65.04" y2="48.24"/><line class="cls-8" x1="97.18" y1="36.91" x2="85.05" y2="36.91"/><line class="cls-8" x1="2.82" y1="82.23" x2="97.18" y2="82.23"/><text class="cls-9" transform="translate(13.29 85.2)">2º</text><text class="cls-9" transform="translate(31.68 85.2)">5º</text><text class="cls-9" transform="translate(48.67 85.2)">8º</text><text class="cls-9" transform="translate(67 85.2)">11º</text><text class="cls-9" transform="translate(85.44 85.2)">14º</text><rect class="cls-10" x="71.9" y="70.89" width="4.53" height="11.33"/><rect class="cls-10" x="90.77" y="25.57" width="4.53" height="56.65"/><rect class="cls-11" x="47.99" y="70.89" width="4.53" height="11.33"/><rect class="cls-11" x="66.87" y="70.89" width="4.53" height="11.33"/><rect class="cls-11" x="85.74" y="36.9" width="4.53" height="45.32"/><rect class="cls-12" x="61.83" y="48.23" width="4.53" height="33.99"/><rect class="cls-12" x="80.71" y="25.57" width="4.53" height="56.65"/><text class="cls-1" transform="translate(1.68 46.9)">Ningún pez murió a<tspan x="0" y="2.4">las dos tempe</tspan><tspan class="cls-2" x="12.11" y="2.4">r</tspan><tspan x="12.9" y="2.4">atu</tspan><tspan class="cls-2" x="15.86" y="2.4">r</tspan><tspan class="cls-4" x="16.65" y="2.4">as</tspan><tspan x="0" y="4.8">más bajas (2 y 5 </tspan><tspan class="cls-13" x="14.17" y="4.8"> </tspan><tspan x="15.17" y="4.8">C)</tspan></text><text class="cls-14" transform="translate(2.82 68.08)"><tspan class="cls-15">F</tspan><tspan x="1.09" y="0">uentes: Jorge M. N</tspan><tspan class="cls-16" x="17.04" y="0">a</tspan><tspan class="cls-4" x="17.99" y="0">varroa, Kurt </tspan><tspan class="cls-17" x="0" y="2.4">P</tspan><tspan class="cls-4" x="1.14" y="2.4">asch</tspan><tspan class="cls-18" x="4.96" y="2.4">k</tspan><tspan x="5.89" y="2.4">eb, Alejandro Ortiza, Luis</tspan><tspan class="cls-19"><tspan x="0" y="4.8">V</tspan><tspan class="cls-4" x="1.18" y="4.8">argas-Chacoffa, Luis Miguel</tspan></tspan><tspan class="cls-17" x="0" y="7.2">P</tspan><tspan class="cls-4" x="1.14" y="7.2">ardoa, Nelson </tspan><tspan class="cls-19" x="13.25" y="7.2">V</tspan><tspan x="14.44" y="7.2">aldiviaa.</tspan></text><text class="cls-14" transform="translate(7.32 13.39)">23 psu</text><text class="cls-14" transform="translate(23.66 13.39)">28 psu</text><text class="cls-14" transform="translate(40 13.39)">33 psu</text><text class="cls-14" transform="translate(1.49 8.01)">Salinidad</text><rect class="cls-12" x="1.72" y="10.26" width="4.43" height="4.43"/><rect class="cls-11" x="18.06" y="10.26" width="4.43" height="4.43"/><rect class="cls-10" x="34.4" y="10.26" width="4.43" height="4.43"/></svg>