<svg id="Capa_1" data-name="Capa 1" xmlns="http://www.w3.org/2000/svg" viewBox="0 0 100 200"><defs><style>.cls-1,.cls-10{font-size:5px;fill:#1d1d1b;}.cls-1{font-family:Lato-Bold, Lato;font-weight:700;}.cls-2{letter-spacing:-0.01em;}.cls-3{letter-spacing:-0.01em;}.cls-4{letter-spacing:0em;}.cls-5{fill:none;stroke:#1d1d1b;}.cls-5,.cls-6,.cls-7,.cls-8{stroke-miterlimit:10;stroke-width:0.1px;}.cls-6{fill:#e94e1b;}.cls-6,.cls-7,.cls-8{stroke:#000;}.cls-7{fill:#f39200;}.cls-8{fill:#fdd390;}.cls-9{letter-spacing:0.31em;}.cls-10{font-family:Lato-Light, Lato;font-weight:300;}.cls-11{letter-spacing:-0.03em;}.cls-12{letter-spacing:-0.01em;}.cls-13{letter-spacing:-0.02em;}.cls-14{letter-spacing:-0.03em;}.cls-15{letter-spacing:-0.05em;}</style></defs><text class="cls-1" transform="translate(64.27 38.77)">Las dos<tspan x="0" y="6">tempe</tspan><tspan class="cls-2" x="14.32" y="6">r</tspan><tspan x="16.29" y="6">atu</tspan><tspan class="cls-3" x="23.69" y="6">r</tspan><tspan x="25.66" y="6">as</tspan><tspan x="0" y="12">más altas en los</tspan><tspan x="0" y="18">t</tspan><tspan class="cls-3" x="1.93" y="18">r</tspan><tspan class="cls-4" x="3.91" y="18">atamientos</tspan><tspan x="0" y="24">de salinidad.</tspan></text><text class="cls-1" transform="translate(35.27 150.48)">Temperatura</text><line class="cls-5" x1="0.94" y1="129.54" x2="0.94" y2="128.12"/><line class="cls-5" x1="95.31" y1="72.89" x2="83.17" y2="72.89"/><line class="cls-5" x1="19.81" y1="129.54" x2="19.81" y2="128.12"/><line class="cls-5" x1="38.69" y1="129.54" x2="38.69" y2="128.12"/><line class="cls-5" x1="57.56" y1="129.54" x2="57.56" y2="128.12"/><line class="cls-5" x1="76.43" y1="129.54" x2="76.43" y2="128.12"/><line class="cls-5" x1="95.31" y1="129.54" x2="95.31" y2="128.12"/><line class="cls-5" x1="95.31" y1="129.54" x2="95.31" y2="72.89"/><line class="cls-5" x1="95.31" y1="129.54" x2="83.17" y2="129.54"/><line class="cls-5" x1="95.31" y1="118.21" x2="46.46" y2="118.21"/><line class="cls-5" x1="95.31" y1="106.88" x2="63.17" y2="106.88"/><line class="cls-5" x1="95.31" y1="95.55" x2="63.17" y2="95.55"/><line class="cls-5" x1="95.31" y1="84.22" x2="83.17" y2="84.22"/><line class="cls-5" x1="0.94" y1="129.54" x2="95.31" y2="129.54"/><text class="cls-1" transform="translate(11.42 136.56)">2º</text><text class="cls-1" transform="translate(29.81 136.56)">5º</text><text class="cls-1" transform="translate(46.8 136.56)">8º</text><text class="cls-1" transform="translate(65.12 136.56)">11º</text><text class="cls-1" transform="translate(83.56 136.56)">14º</text><rect class="cls-6" x="70.02" y="118.2" width="4.53" height="11.33"/><rect class="cls-6" x="88.9" y="72.88" width="4.53" height="56.65"/><rect class="cls-7" x="46.12" y="118.2" width="4.53" height="11.33"/><rect class="cls-7" x="64.99" y="118.2" width="4.53" height="11.33"/><rect class="cls-7" x="83.86" y="84.21" width="4.53" height="45.32"/><rect class="cls-8" x="59.96" y="95.54" width="4.53" height="33.99"/><rect class="cls-8" x="78.83" y="72.88" width="4.53" height="56.65"/><text class="cls-1" transform="translate(5.16 97.79)">Ningún pez murió a<tspan x="0" y="6">las dos tempe</tspan><tspan class="cls-2" x="30.28" y="6">r</tspan><tspan x="32.26" y="6">atu</tspan><tspan class="cls-3" x="39.65" y="6">r</tspan><tspan x="41.63" y="6">as</tspan><tspan x="0" y="12">más bajas (2 y 5 </tspan><tspan class="cls-9" x="35.42" y="12"> </tspan><tspan x="37.91" y="12">C)</tspan></text><text class="cls-10" transform="translate(5.16 165.56)"><tspan class="cls-11">F</tspan><tspan x="2.71" y="0">uentes: Jorge M. N</tspan><tspan class="cls-12" x="42.6" y="0">a</tspan><tspan x="44.97" y="0">varroa, Kurt </tspan><tspan class="cls-13" x="0" y="6">P</tspan><tspan x="2.85" y="6">asch</tspan><tspan class="cls-14" x="12.41" y="6">k</tspan><tspan x="14.72" y="6">eb, Alejandro Ortiza, Luis</tspan><tspan class="cls-15" x="0" y="12">V</tspan><tspan x="2.96" y="12">argas-Chacoffa, Luis Miguel</tspan><tspan class="cls-13" x="0" y="18">P</tspan><tspan x="2.85" y="18">ardoa, Nelson </tspan><tspan class="cls-15" x="33.13" y="18">V</tspan><tspan x="36.09" y="18">aldiviaa.</tspan></text><text class="cls-10" transform="translate(17.33 19.45)">23 psu</text><text class="cls-10" transform="translate(47.47 19.45)">28 psu</text><text class="cls-10" transform="translate(77.61 19.45)">33 psu</text><text class="cls-1" transform="translate(5.16 9.53)">Salinidad</text><rect class="cls-8" x="7.01" y="13.67" width="8.17" height="8.17"/><rect class="cls-7" x="37.14" y="13.67" width="8.17" height="8.17"/><rect class="cls-6" x="67.28" y="13.67" width="8.17" height="8.17"/></svg>